<svg width="18" height="18" viewBox="0 0 18 18" fill="none" xmlns="http://www.w3.org/2000/svg">
<path fill-rule="evenodd" clip-rule="evenodd" d="M3.17932 7.79349C3.19013 4.61305 5.77714 2.04355 8.95758 2.05432C12.138 2.06516 14.7075 4.65218 14.6967 7.83262V7.89784C14.6576 9.96523 13.5032 11.8761 12.088 13.3696C11.2787 14.21 10.3748 14.9541 9.39454 15.587C9.13242 15.8137 8.74362 15.8137 8.4815 15.587C7.02012 14.6358 5.73752 13.4349 4.69236 12.0391C3.76083 10.8221 3.23195 9.34481 3.17932 7.81305V7.79349Z" stroke="#008ECC" stroke-linecap="round" stroke-linejoin="round"/>
<path d="M8.93806 9.75002C9.95739 9.75002 10.7837 8.92369 10.7837 7.90437C10.7837 6.88504 9.95739 6.05872 8.93806 6.05872C7.91873 6.05872 7.09241 6.88504 7.09241 7.90437C7.09241 8.92369 7.91873 9.75002 8.93806 9.75002Z" stroke="#008ECC" stroke-linecap="round" stroke-linejoin="round"/>
</svg>
